<svg width="311" height="117" viewBox="0 0 311 117" fill="none" xmlns="http://www.w3.org/2000/svg">
<path d="M203.272 54.5725L203.515 61.2125L203.272 60.6456C204.622 58.2164 206.376 56.327 208.536 54.9774C210.695 53.6278 213.259 52.953 216.228 52.953C219.089 52.953 221.465 53.5738 223.354 54.8155C225.298 56.0031 226.539 57.8385 227.079 60.3217L226.674 60.4837C228.132 58.1624 229.94 56.327 232.099 54.9774C234.313 53.6278 236.607 52.953 238.982 52.953C242.437 52.953 245.163 53.9247 247.161 55.8681C249.212 57.8115 250.265 60.3217 250.319 63.3988V89.4726H240.116V67.5285C240.062 65.909 239.765 64.5864 239.225 63.5607C238.685 62.535 237.579 61.9682 235.905 61.8603C234.07 61.8603 232.477 62.4811 231.128 63.7227C229.778 64.9643 228.752 66.5568 228.051 68.5002C227.349 70.4436 226.998 72.4679 226.998 74.5733V89.4726H216.714V67.5285C216.66 65.909 216.336 64.5864 215.742 63.5607C215.149 62.535 214.015 61.9682 212.342 61.8603C210.506 61.8603 208.941 62.4811 207.645 63.7227C206.349 64.9643 205.351 66.5568 204.649 68.5002C203.947 70.3896 203.596 72.387 203.596 74.4923V89.4726H193.312V54.5725H203.272Z" fill="#F3A1F0"/>
<path d="M254.98 54.5725H265.264V89.4726H254.98V54.5725ZM254.737 42.1834C254.737 40.6719 255.331 39.4303 256.518 38.4586C257.76 37.4329 259.083 36.92 260.486 36.92C261.89 36.92 263.158 37.4329 264.292 38.4586C265.48 39.4303 266.073 40.6719 266.073 42.1834C266.073 43.7489 265.48 45.0175 264.292 45.9892C263.158 46.9609 261.89 47.4468 260.486 47.4468C259.083 47.4468 257.76 46.9609 256.518 45.9892C255.331 45.0175 254.737 43.7489 254.737 42.1834Z" fill="#F3A1F0"/>
<path d="M265.536 89.4726L292.258 54.5725H302.542L275.739 89.4726H265.536ZM304.323 89.4726H291.853L265.131 54.5725H277.763L304.323 89.4726Z" fill="#F3A1F0"/>
<path d="M119.585 90.2825L98.9482 54.5726H111.094L119.585 69.391L127.775 54.5726H139.193L119.585 90.2825Z" fill="#3DDA98"/>
<path d="M150.241 91.0922C147.056 91.0922 144.41 90.1205 142.305 88.1772C140.2 86.2338 139.093 83.7235 138.985 80.6465V54.5726H149.269V76.8407C149.377 78.4602 149.809 79.7828 150.565 80.8085C151.374 81.7802 152.67 82.293 154.451 82.347C156.179 82.347 157.69 81.7802 158.986 80.6465C160.282 79.5129 161.28 77.9743 161.982 76.0309C162.738 74.0336 163.116 71.8203 163.116 69.391V54.5726H173.399V89.4728H163.116L163.278 82.5089L163.521 83.3996C162.387 85.6669 160.659 87.5294 158.338 88.9869C156.071 90.3905 153.372 91.0922 150.241 91.0922Z" fill="#3DDA98"/>
<path d="M178.195 25.9076H188.478V89.4728H178.195V25.9076Z" fill="#3DDA98"/>
<g clip-path="url(#clip0_313_19)">
<mask id="path-3-inside-1_313_19" fill="white">
<path d="M30.5032 22.3811C33.069 19.8153 36.1151 17.78 39.4674 16.3914C42.8198 15.0028 46.4129 14.2881 50.0415 14.2881C53.6701 14.2881 57.2632 15.0028 60.6156 16.3914C63.9679 17.78 67.014 19.8153 69.5798 22.3811L61.762 30.1989C60.2229 28.6597 58.3956 27.4388 56.3846 26.6058C54.3736 25.7728 52.2182 25.3441 50.0415 25.3441C47.8648 25.3441 45.7094 25.7728 43.6984 26.6058C41.6874 27.4388 39.8601 28.6597 38.321 30.1989L30.5032 22.3811Z"/>
</mask>
<path d="M30.5032 22.3811C33.069 19.8153 36.1151 17.78 39.4674 16.3914C42.8198 15.0028 46.4129 14.2881 50.0415 14.2881C53.6701 14.2881 57.2632 15.0028 60.6156 16.3914C63.9679 17.78 67.014 19.8153 69.5798 22.3811L61.762 30.1989C60.2229 28.6597 58.3956 27.4388 56.3846 26.6058C54.3736 25.7728 52.2182 25.3441 50.0415 25.3441C47.8648 25.3441 45.7094 25.7728 43.6984 26.6058C41.6874 27.4388 39.8601 28.6597 38.321 30.1989L30.5032 22.3811Z" stroke="#F3A1F0" stroke-width="22.1052" mask="url(#path-3-inside-1_313_19)"/>
<mask id="path-4-inside-2_313_19" fill="white">
<path d="M69.6887 44.379C73.7281 44.379 77.7051 45.3752 81.2675 47.2794C84.8299 49.1835 87.8678 51.9368 90.1119 55.2954C92.3561 58.6541 93.7373 62.5143 94.1332 66.5342C94.5291 70.5541 93.9276 74.6097 92.3818 78.3415C90.836 82.0734 88.3937 85.3665 85.2712 87.9291C82.1487 90.4916 78.4424 92.2445 74.4807 93.0326C70.5189 93.8206 66.424 93.6194 62.5585 92.4469C58.6931 91.2743 55.1765 89.1665 52.3202 86.3103L59.2821 79.3484C60.9935 81.0598 63.1005 82.3227 65.4166 83.0252C67.7326 83.7278 70.1862 83.8483 72.5599 83.3762C74.9337 82.904 77.1543 81.8537 79.0252 80.3183C80.8961 78.7829 82.3594 76.8098 83.2856 74.5738C84.2118 72.3378 84.5723 69.9078 84.335 67.4993C84.0978 65.0907 83.2702 62.7777 81.9256 60.7654C80.581 58.753 78.7608 57.1033 76.6264 55.9624C74.4919 54.8215 72.109 54.2246 69.6887 54.2246V44.379Z"/>
</mask>
<path d="M69.6887 44.379C73.7281 44.379 77.7051 45.3752 81.2675 47.2794C84.8299 49.1835 87.8678 51.9368 90.1119 55.2954C92.3561 58.6541 93.7373 62.5143 94.1332 66.5342C94.5291 70.5541 93.9276 74.6097 92.3818 78.3415C90.836 82.0734 88.3937 85.3665 85.2712 87.9291C82.1487 90.4916 78.4424 92.2445 74.4807 93.0326C70.5189 93.8206 66.424 93.6194 62.5585 92.4469C58.6931 91.2743 55.1765 89.1665 52.3202 86.3103L59.2821 79.3484C60.9935 81.0598 63.1005 82.3227 65.4166 83.0252C67.7326 83.7278 70.1862 83.8483 72.5599 83.3762C74.9337 82.904 77.1543 81.8537 79.0252 80.3183C80.8961 78.7829 82.3594 76.8098 83.2856 74.5738C84.2118 72.3378 84.5723 69.9078 84.335 67.4993C84.0978 65.0907 83.2702 62.7777 81.9256 60.7654C80.581 58.753 78.7608 57.1033 76.6264 55.9624C74.4919 54.8215 72.109 54.2246 69.6887 54.2246V44.379Z" stroke="#3DDA98" stroke-width="19.6503" mask="url(#path-4-inside-2_313_19)"/>
<mask id="path-5-inside-3_313_19" fill="white">
<path d="M30.3913 44.379C26.352 44.379 22.3749 45.3752 18.8125 47.2794C15.2501 49.1835 12.2123 51.9368 9.96816 55.2954C7.72401 58.6541 6.34279 62.5143 5.94687 66.5342C5.55093 70.5541 6.15252 74.6097 7.69831 78.3415C9.24411 82.0734 11.6864 85.3665 14.8089 87.9291C17.9314 90.4916 21.6376 92.2445 25.5994 93.0326C29.5611 93.8206 33.6561 93.6194 37.5215 92.4469C41.387 91.2743 44.9036 89.1665 47.7598 86.3103L40.7979 79.3484C39.0866 81.0598 36.9795 82.3227 34.6635 83.0252C32.3475 83.7278 29.8939 83.8483 27.5202 83.3762C25.1464 82.904 22.9258 81.8537 21.0549 80.3183C19.184 78.7829 17.7207 76.8098 16.7945 74.5738C15.8683 72.3378 15.5078 69.9078 15.7451 67.4993C15.9823 65.0907 16.8099 62.7777 18.1545 60.7654C19.4991 58.753 21.3193 57.1033 23.4537 55.9624C25.5882 54.8215 27.9711 54.2246 30.3913 54.2246V44.379Z"/>
</mask>
<path d="M30.3913 44.379C26.352 44.379 22.3749 45.3752 18.8125 47.2794C15.2501 49.1835 12.2123 51.9368 9.96816 55.2954C7.72401 58.6541 6.34279 62.5143 5.94687 66.5342C5.55093 70.5541 6.15252 74.6097 7.69831 78.3415C9.24411 82.0734 11.6864 85.3665 14.8089 87.9291C17.9314 90.4916 21.6376 92.2445 25.5994 93.0326C29.5611 93.8206 33.6561 93.6194 37.5215 92.4469C41.387 91.2743 44.9036 89.1665 47.7598 86.3103L40.7979 79.3484C39.0866 81.0598 36.9795 82.3227 34.6635 83.0252C32.3475 83.7278 29.8939 83.8483 27.5202 83.3762C25.1464 82.904 22.9258 81.8537 21.0549 80.3183C19.184 78.7829 17.7207 76.8098 16.7945 74.5738C15.8683 72.3378 15.5078 69.9078 15.7451 67.4993C15.9823 65.0907 16.8099 62.7777 18.1545 60.7654C19.4991 58.753 21.3193 57.1033 23.4537 55.9624C25.5882 54.8215 27.9711 54.2246 30.3913 54.2246V44.379Z" stroke="#3DDA98" stroke-width="19.6503" mask="url(#path-5-inside-3_313_19)"/>
<path fill-rule="evenodd" clip-rule="evenodd" d="M50.0372 75.0796L22.4047 19.8146H5.8252L50.0372 102.712L94.2492 19.8146H77.6697L50.0372 75.0796Z" fill="#3DDA98"/>
<path fill-rule="evenodd" clip-rule="evenodd" d="M50.0376 64.0266L27.9316 19.8146H38.9846L50.0376 41.9204L61.0906 19.8146H72.1436L50.0376 64.0266Z" fill="#F3A1F0"/>
</g>
<defs>
<clipPath id="clip0_313_19">
<rect width="88.424" height="88.424" fill="white" transform="translate(5.8252 14.288)"/>
</clipPath>
</defs>
</svg>
